<?xml version="1.0" encoding="UTF-8"?>
<svg xmlns="http://www.w3.org/2000/svg" xmlns:xlink="http://www.w3.org/1999/xlink" width="192px" height="192px" viewBox="0 0 192 192" version="1.1">
<g id="surface1">
<path style=" stroke:none;fill-rule:nonzero;fill:rgb(5.490196%,5.490196%,96.078431%);fill-opacity:1;" d="M 17.855469 67.007812 C 17.566406 67.585938 16.414062 67.777344 15.457031 67.488281 C 12.863281 66.816406 10.464844 71.808594 10.273438 78.144531 C 10.175781 84.769531 11.519531 87.070312 16.320312 87.839844 C 18.433594 88.222656 20.351562 88.800781 20.640625 89.28125 C 20.929688 89.664062 19.296875 89.664062 17.183594 89.183594 C 12.480469 88.128906 10.273438 89.375 10.753906 92.929688 C 10.945312 94.753906 11.902344 95.617188 14.207031 96.382812 L 17.375 97.535156 L 15.359375 100.128906 C 13.824219 102.144531 13.535156 103.105469 14.304688 104.0625 C 14.878906 104.734375 14.976562 105.695312 14.59375 106.078125 C 14.207031 106.558594 14.398438 106.558594 14.976562 106.273438 C 15.550781 105.984375 17.28125 107.039062 18.816406 108.769531 C 21.214844 111.359375 21.3125 111.550781 19.199219 109.921875 C 16.992188 108.191406 16.894531 108.191406 18.433594 109.921875 C 20.929688 112.703125 23.808594 112.414062 26.59375 109.054688 L 29.089844 106.078125 L 23.902344 101.566406 C 21.121094 98.976562 19.199219 96.960938 19.679688 96.960938 C 20.160156 96.960938 22.367188 98.785156 24.671875 100.992188 C 28.703125 104.929688 28.703125 104.929688 32.640625 103.777344 C 37.921875 102.238281 46.078125 94.367188 46.078125 90.910156 C 46.078125 87.359375 40.128906 80.929688 35.425781 79.585938 C 32.0625 78.527344 31.777344 78.144531 31.488281 74.59375 C 31.296875 71.808594 30.527344 70.273438 28.800781 69.023438 C 25.921875 66.910156 18.71875 65.566406 17.855469 67.007812 Z M 25.246094 69.695312 C 30.046875 71.328125 30.433594 71.902344 28.703125 75.070312 C 27.9375 76.511719 27.070312 76.800781 25.152344 76.414062 C 19.488281 75.070312 17.28125 73.726562 17.28125 71.519531 C 17.28125 67.679688 18.527344 67.390625 25.246094 69.695312 Z M 14.496094 74.398438 C 13.726562 79.199219 13.726562 79.199219 12.480469 76.609375 C 11.425781 74.398438 11.519531 73.632812 12.863281 71.519531 C 13.824219 70.078125 14.6875 69.121094 14.878906 69.3125 C 15.070312 69.503906 14.878906 71.808594 14.496094 74.398438 Z M 27.648438 83.425781 C 25.921875 85.535156 24.289062 87.070312 24.097656 86.878906 C 23.519531 86.207031 28.800781 79.679688 29.855469 79.679688 C 30.433594 79.679688 29.375 81.40625 27.648438 83.425781 Z M 40.992188 84.769531 C 42.910156 86.59375 44.257812 88.609375 43.96875 89.28125 C 43.679688 90.144531 42.335938 89.472656 39.550781 86.976562 C 37.34375 84.960938 35.519531 82.945312 35.519531 82.464844 C 35.519531 80.832031 37.535156 81.601562 40.992188 84.769531 Z M 38.304688 89.183594 C 42.335938 92.640625 43.007812 95.039062 39.9375 95.039062 C 37.824219 95.039062 30.335938 87.839844 31.105469 86.59375 C 32.257812 84.671875 33.886719 85.246094 38.304688 89.183594 Z M 38.304688 89.183594 "/>
<path style=" stroke:none;fill-rule:nonzero;fill:rgb(5.490196%,5.490196%,96.078431%);fill-opacity:1;" d="M 105.3125 99.070312 C 103.296875 108.960938 103.199219 108.480469 106.078125 108.480469 C 107.902344 108.480469 108.574219 107.808594 109.054688 105.792969 C 109.34375 104.351562 109.824219 102.527344 110.113281 101.761719 C 110.304688 100.992188 110.6875 99.070312 110.976562 97.535156 C 111.167969 96.097656 111.550781 93.984375 111.839844 93.023438 C 112.320312 91.488281 111.9375 91.199219 109.726562 91.199219 C 107.039062 91.199219 106.945312 91.390625 105.3125 99.070312 Z M 105.3125 99.070312 "/>
<path style=" stroke:none;fill-rule:nonzero;fill:rgb(5.490196%,5.490196%,96.078431%);fill-opacity:1;" d="M 122.398438 93.3125 C 122.207031 93.984375 121.535156 97.152344 120.863281 100.320312 C 120.289062 103.488281 119.519531 106.558594 119.328125 107.230469 C 118.945312 108.097656 119.808594 108.480469 121.726562 108.480469 C 124.414062 108.480469 124.800781 108.097656 125.375 105.121094 C 126.046875 101.28125 127.296875 101.472656 128.160156 105.601562 C 128.640625 108 129.214844 108.480469 131.617188 108.480469 C 134.878906 108.480469 134.878906 108.480469 133.054688 104.160156 C 131.808594 101.183594 131.808594 100.800781 133.535156 99.265625 C 135.648438 97.34375 135.9375 95.039062 134.207031 93.3125 C 132.671875 91.777344 122.976562 91.777344 122.398438 93.3125 Z M 130.367188 95.710938 C 130.65625 97.632812 128.160156 100.609375 127.105469 99.550781 C 126.816406 99.265625 126.816406 97.632812 127.199219 96 C 127.871094 92.734375 129.886719 92.542969 130.367188 95.710938 Z M 130.367188 95.710938 "/>
<path style=" stroke:none;fill-rule:nonzero;fill:rgb(5.490196%,5.490196%,96.078431%);fill-opacity:1;" d="M 44.257812 102.910156 C 43.585938 106.273438 42.816406 109.921875 42.527344 111.070312 C 42.144531 112.894531 42.433594 113.28125 44.542969 113.28125 C 46.558594 113.28125 47.230469 112.703125 47.617188 110.496094 C 48.191406 107.902344 48.480469 107.710938 51.359375 108.191406 C 53.855469 108.574219 54.816406 108.289062 56.0625 106.464844 C 58.078125 103.585938 58.078125 98.015625 56.0625 97.246094 C 55.296875 96.960938 53.566406 97.152344 52.320312 97.726562 C 50.878906 98.398438 49.824219 98.496094 49.441406 97.921875 C 49.054688 97.34375 48.097656 96.960938 47.136719 96.960938 C 45.695312 96.960938 45.121094 98.207031 44.257812 102.910156 Z M 52.800781 100.703125 C 52.800781 101.183594 52.320312 102.816406 51.839844 104.257812 C 50.496094 107.617188 48.574219 105.984375 49.535156 102.335938 C 50.113281 100.03125 52.800781 98.6875 52.800781 100.703125 Z M 52.800781 100.703125 "/>
<path style=" stroke:none;fill-rule:nonzero;fill:rgb(5.490196%,5.490196%,96.078431%);fill-opacity:1;" d="M 60.097656 99.9375 C 58.65625 107.328125 60.191406 109.824219 64.894531 107.710938 C 66.433594 106.945312 67.199219 106.945312 67.199219 107.617188 C 67.199219 108.191406 68.160156 108.480469 69.3125 108.289062 C 71.425781 108 71.902344 106.847656 73.246094 100.03125 C 73.824219 96.960938 73.726562 96.863281 71.328125 97.152344 C 69.121094 97.441406 68.542969 98.113281 67.679688 101.664062 C 66.144531 108 64.03125 108.097656 64.894531 101.855469 C 65.472656 97.054688 65.472656 96.960938 63.167969 96.960938 C 61.152344 96.960938 60.574219 97.535156 60.097656 99.9375 Z M 60.097656 99.9375 "/>
<path style=" stroke:none;fill-rule:nonzero;fill:rgb(5.490196%,5.490196%,96.078431%);fill-opacity:1;" d="M 76.511719 97.632812 C 76.222656 98.113281 75.742188 99.9375 75.359375 101.761719 C 75.070312 103.585938 74.496094 105.886719 74.304688 106.753906 C 73.921875 108.097656 74.398438 108.480469 76.609375 108.480469 C 79.296875 108.480469 79.488281 108.191406 80.0625 104.160156 C 80.542969 101.375 81.214844 99.839844 82.175781 99.839844 C 83.710938 99.839844 83.710938 100.03125 82.65625 104.832031 C 81.792969 108.382812 81.886719 108.480469 84.480469 108.480469 C 86.6875 108.480469 87.265625 108 87.742188 105.503906 C 89.183594 98.113281 87.648438 95.617188 82.945312 97.726562 C 81.503906 98.398438 80.640625 98.496094 80.640625 97.921875 C 80.640625 96.769531 77.089844 96.574219 76.511719 97.632812 Z M 76.511719 97.632812 "/>
<path style=" stroke:none;fill-rule:nonzero;fill:rgb(5.490196%,5.490196%,96.078431%);fill-opacity:1;" d="M 92.832031 98.878906 C 89.566406 101.472656 89.28125 105.984375 92.160156 107.519531 C 95.136719 109.152344 101.183594 108.382812 101.566406 106.273438 C 101.761719 105.214844 101.28125 104.640625 100.222656 104.640625 C 99.359375 104.640625 98.015625 105.40625 97.34375 106.273438 C 96.191406 107.902344 96.097656 107.902344 95.425781 106.175781 C 94.65625 104.0625 96 99.648438 97.726562 99.070312 C 98.304688 98.878906 98.878906 99.359375 98.878906 100.222656 C 98.878906 101.183594 99.648438 101.761719 100.894531 101.761719 C 102.335938 101.761719 102.816406 101.28125 102.527344 99.550781 C 102.144531 96.480469 96.382812 96.097656 92.832031 98.878906 Z M 92.832031 98.878906 "/>
<path style=" stroke:none;fill-rule:nonzero;fill:rgb(5.490196%,5.490196%,96.078431%);fill-opacity:1;" d="M 112.414062 97.824219 C 111.648438 98.304688 111.550781 98.878906 112.128906 99.265625 C 112.703125 99.648438 112.800781 101.183594 112.222656 103.390625 C 111.070312 108.574219 111.070312 108.671875 113.953125 108.289062 C 116.351562 108 116.734375 107.425781 117.503906 103.296875 C 118.175781 99.742188 118.078125 98.496094 117.023438 97.824219 C 115.296875 96.769531 114.144531 96.769531 112.414062 97.824219 Z M 112.414062 97.824219 "/>
</g>
</svg>
